<?xml version="1.0" encoding="utf-8"?>
<svg viewBox="-43.4904 -19.4255 376.9168 116.553" xmlns="http://www.w3.org/2000/svg">
  <path d="M 9.727 18.741 L 7.482 39.997 L 3.651 22.077 L -8.359 24.615 L -4.531 42.534 L -21.846 46.195 L -18.787 60.508 L 11.663 66.945 L 18.627 51.39 L 21.941 20.017 L 9.726 18.739 L 9.727 18.741 L 9.727 18.741 Z M 0.106 49.575 C -0.523 50.147 -1.351 50.095 -2.232 49.803 C -3.111 49.513 -3.502 48.454 -3.169 47.176 C -2.922 46.226 -1.754 46.084 -1.169 46.074 C -0.946 46.072 -0.729 46.115 -0.526 46.206 C -0.114 46.392 0.586 46.788 0.728 47.394 C 0.933 48.267 0.737 49.002 0.107 49.575 L 0.106 49.575 L 0.106 49.575 L 0.106 49.575 Z M 8.922 50.562 C 8.465 51.349 7.269 51.454 6.091 50.88 C 5.296 50.494 5.302 49.509 5.388 48.908 C 5.436 48.581 5.569 48.271 5.775 48.012 C 6.058 47.655 6.532 47.189 7.078 47.175 C 7.967 47.149 8.734 47.547 9.165 48.266 C 9.599 48.981 9.382 49.772 8.926 50.562 L 8.922 50.562 Z" style="fill: rgb(255, 255, 255);"/>
  <path d="M 62.326 63.277 L 71.07 63.277 L 69.621 56.494 L 69.621 16.051 L 61.256 16.051 L 61.256 34.497 C 58.741 31.581 55.28 29.871 51.193 29.871 C 42.828 29.871 36.35 36.779 36.35 46.922 C 36.35 57.065 42.828 63.974 51.193 63.974 C 55.344 63.974 58.928 62.198 61.445 59.155 L 62.326 63.276 L 62.326 63.277 Z M 227.674 38.936 C 229.373 38.936 230.944 39.378 232.39 40.392 L 236.353 31.456 C 234.528 30.312 232.39 29.807 230.316 29.807 C 226.542 29.807 223.397 31.514 221.386 34.688 L 220.504 30.564 L 211.887 30.564 L 213.27 36.966 L 213.27 63.272 L 221.631 63.272 L 221.631 42.419 C 222.764 40.263 224.902 38.933 227.67 38.933 L 227.67 38.936 L 227.674 38.936 Z M 252.2 55.162 C 247.362 55.162 243.773 51.931 243.773 46.921 C 243.773 41.85 247.362 38.682 252.2 38.682 C 257.108 38.682 260.631 41.85 260.631 46.921 C 260.631 51.931 257.108 55.162 252.201 55.162 L 252.2 55.162 Z M 44.462 46.921 C 44.462 41.85 48.047 38.682 52.889 38.682 C 57.797 38.682 61.318 41.85 61.318 46.921 C 61.318 51.931 57.797 55.162 52.892 55.162 C 48.05 55.162 44.462 51.931 44.462 46.921 Z M 289.248 55.162 C 284.406 55.162 280.821 51.931 280.821 46.921 C 280.821 41.85 284.406 38.682 289.248 38.682 C 294.152 38.682 297.675 41.85 297.675 46.921 C 297.675 51.931 294.152 55.162 289.248 55.162 Z M 91.382 38.174 C 95.721 38.174 98.552 40.202 99.431 43.942 L 83.333 43.942 C 84.276 40.202 87.106 38.174 91.381 38.174 L 91.382 38.174 Z M 191.444 38.174 C 195.786 38.174 198.617 40.202 199.496 43.942 L 183.398 43.942 C 184.341 40.202 187.171 38.174 191.446 38.174 L 191.444 38.174 Z M 150.63 63.277 L 164.089 63.277 L 172.833 30.568 L 163.713 30.568 L 157.3 57.065 L 150.884 30.568 L 141.888 30.568 L 150.632 63.276 L 150.63 63.277 Z M 129.056 63.277 L 137.416 63.277 L 137.416 30.567 L 129.056 30.567 L 129.056 63.277 Z M 92.664 63.883 C 97.32 63.883 101.911 62.613 105.747 60.142 L 102.541 52.916 C 99.521 54.501 96.188 55.452 92.791 55.452 C 88.389 55.452 85.307 53.74 83.986 50.571 L 107.507 50.571 C 107.758 49.367 107.886 48.163 107.886 46.704 C 107.886 36.562 100.905 29.779 91.533 29.779 C 82.101 29.779 75.182 36.626 75.182 46.831 C 75.182 57.226 82.037 63.883 92.667 63.883 L 92.664 63.883 Z M 305.789 46.921 C 305.789 36.779 298.745 29.869 289.248 29.869 C 279.75 29.869 272.706 36.779 272.706 46.921 C 272.706 57.065 279.75 63.973 289.246 63.973 C 298.745 63.973 305.788 57.065 305.788 46.921 L 305.789 46.921 Z M 192.58 63.973 C 197.231 63.973 201.822 62.706 205.663 60.233 L 202.452 53.003 C 199.433 54.588 196.099 55.539 192.703 55.539 C 188.301 55.539 185.219 53.829 183.897 50.657 L 207.421 50.657 C 207.672 49.453 207.796 48.249 207.796 46.792 C 207.796 36.649 200.815 29.867 191.443 29.867 C 182.011 29.867 175.092 36.711 175.092 46.919 C 175.092 57.313 181.949 63.97 192.578 63.97 L 192.578 63.973 L 192.58 63.973 Z M 252.201 63.973 C 261.699 63.973 268.741 57.065 268.741 46.921 C 268.741 36.779 261.698 29.869 252.2 29.869 C 242.702 29.869 235.659 36.779 235.659 46.921 C 235.659 57.065 242.703 63.973 252.199 63.973 L 252.201 63.973 Z M 113.207 63.276 L 121.57 63.276 L 121.57 16.049 L 113.206 16.049 L 113.206 63.276 L 113.207 63.276 Z M 133.268 26.064 C 136.223 26.064 138.489 23.78 138.489 20.737 C 138.489 17.695 136.226 15.413 133.269 15.413 C 130.251 15.413 127.986 17.695 127.986 20.737 C 127.986 23.78 130.252 26.061 133.27 26.061 L 133.268 26.064 Z" style="fill: rgb(255, 255, 255);"/>
</svg>