<?xml version="1.0" encoding="utf-8"?>
<svg viewBox="-43.4904 -19.4255 376.9168 116.553" xmlns="http://www.w3.org/2000/svg">
  <path d="M 78.966 31.641 L 78.966 46.489 L 82.668 46.489 C 84.576 46.46 86.392 45.66 87.702 44.272 C 89.033 42.862 89.762 40.989 89.732 39.052 C 89.788 37.108 89.069 35.222 87.731 33.81 C 86.415 32.419 84.584 31.633 82.668 31.639 L 78.967 31.639 Z M 82.668 26.985 C 89.568 26.985 94.787 32.332 94.787 39.052 C 94.787 45.773 89.568 51.15 82.668 51.15 L 74.503 51.15 C 74.176 51.146 73.914 50.876 73.918 50.549 L 73.918 27.61 C 73.918 27.278 74.18 27.008 74.503 27.008 Z M 112.573 47.006 C 115.706 47.015 118.536 45.088 119.743 42.122 C 120.951 39.162 120.301 35.768 118.085 33.463 C 115.905 31.19 112.548 30.499 109.646 31.722 C 106.751 32.945 104.859 35.839 104.853 39.052 C 104.853 43.432 108.304 46.985 112.575 47.006 M 112.575 26.438 C 119.837 26.438 125.389 32.162 125.389 39.052 C 125.389 45.943 119.837 51.667 112.573 51.667 C 105.31 51.667 99.805 45.971 99.805 39.052 C 99.805 32.134 105.357 26.438 112.573 26.438 M 143.031 47.006 C 147.303 46.995 150.76 43.438 150.756 39.058 C 150.75 34.675 147.286 31.125 143.016 31.124 C 138.742 31.124 135.276 34.671 135.27 39.052 C 135.27 41.163 136.087 43.187 137.543 44.678 C 138.983 46.162 140.962 47.002 143.029 47.006 M 143.029 26.438 C 150.269 26.438 155.821 32.134 155.821 39.052 C 155.821 45.971 150.246 51.667 143.029 51.667 C 135.814 51.667 130.214 45.971 130.214 39.052 C 130.214 32.134 135.766 26.438 143.029 26.438 M 172.755 31.641 L 167.535 31.641 L 167.535 38.031 L 172.755 38.031 C 173.589 38.067 174.401 37.757 174.997 37.176 C 175.601 36.591 175.945 35.779 175.953 34.926 C 175.983 34.05 175.656 33.2 175.046 32.573 C 174.448 31.954 173.615 31.618 172.755 31.647 Z M 162.485 27.61 C 162.485 27.278 162.749 27.008 163.072 27.008 L 172.9 27.008 C 177.586 27.008 180.976 30.529 180.976 34.95 C 181.012 37.941 179.379 40.687 176.772 42.026 L 181.305 50.244 C 181.433 50.436 181.442 50.683 181.327 50.885 C 181.216 51.084 180.999 51.199 180.772 51.18 L 176.795 51.18 C 176.57 51.182 176.362 51.057 176.262 50.855 L 171.894 42.722 L 167.516 42.722 L 167.516 50.53 C 167.522 50.859 167.259 51.129 166.931 51.133 L 163.098 51.133 C 162.77 51.129 162.507 50.859 162.513 50.53 L 162.487 27.612 Z M 194.138 31.754 L 194.138 46.604 L 197.838 46.604 C 199.747 46.577 201.563 45.781 202.875 44.395 C 204.206 42.987 204.936 41.116 204.908 39.179 C 204.97 37.233 204.251 35.341 202.913 33.927 C 201.595 32.534 199.758 31.747 197.84 31.756 Z M 197.838 27.093 C 204.738 27.093 209.958 32.445 209.958 39.179 C 209.958 45.913 204.738 51.265 197.838 51.265 L 189.698 51.265 C 189.369 51.261 189.107 50.991 189.113 50.663 L 189.113 27.726 C 189.113 27.391 189.375 27.121 189.698 27.121 L 197.84 27.093 Z M 225.355 32.998 L 222.491 40.938 L 228.213 40.938 Z M 220.811 45.426 L 218.936 50.712 C 218.859 50.967 218.619 51.138 218.351 51.127 L 214.285 51.127 C 214.073 51.146 213.87 51.05 213.751 50.874 C 213.63 50.697 213.611 50.468 213.7 50.274 L 222.486 27.357 C 222.571 27.108 222.808 26.946 223.071 26.961 L 227.62 26.961 C 227.883 26.946 228.123 27.108 228.208 27.357 L 236.994 50.274 C 237.082 50.468 237.063 50.697 236.941 50.874 C 236.822 51.048 236.618 51.144 236.406 51.125 L 232.342 51.125 C 232.076 51.136 231.834 50.965 231.757 50.71 L 229.882 45.424 L 220.811 45.424 Z M 241.707 33.514 C 241.707 29.719 244.905 26.438 249.955 26.438 C 252.676 26.378 255.307 27.393 257.28 29.268 C 257.535 29.508 257.535 29.912 257.28 30.151 L 255.028 32.445 C 254.801 32.679 254.424 32.679 254.197 32.445 C 253.136 31.45 251.743 30.888 250.289 30.865 C 248.269 30.865 246.776 32.068 246.776 33.455 C 246.776 37.941 258.713 35.352 258.713 43.983 C 258.707 48.358 255.485 51.667 249.787 51.667 C 246.591 51.699 243.518 50.434 241.271 48.159 C 241.018 47.92 241.018 47.516 241.271 47.276 L 243.45 45.041 C 243.68 44.793 244.071 44.793 244.299 45.041 C 245.67 46.4 247.518 47.172 249.447 47.193 C 251.972 47.193 253.635 45.811 253.635 44.08 C 253.635 39.592 241.704 42.182 241.704 33.549 M 280.359 27.58 L 280.359 36.649 L 270.255 36.649 L 270.255 27.58 C 270.259 27.252 269.998 26.984 269.67 26.98 L 265.838 26.98 C 265.511 26.984 265.249 27.252 265.252 27.58 L 265.252 50.493 C 265.252 50.825 265.517 51.095 265.838 51.095 L 269.67 51.095 C 269.991 51.095 270.255 50.825 270.255 50.493 L 270.255 41.28 L 280.351 41.28 L 280.351 50.493 C 280.351 50.825 280.615 51.095 280.936 51.095 L 284.769 51.095 C 285.092 51.095 285.354 50.825 285.354 50.493 L 285.354 27.58 C 285.358 27.252 285.097 26.984 284.769 26.98 L 280.936 26.98 C 280.612 26.987 280.355 27.255 280.359 27.58 Z M 52.406 30.038 C 49.748 25.111 44.547 22.043 38.891 22.062 L -3.902 22.062 C -4.493 22.064 -5.026 22.419 -5.254 22.964 C -5.479 23.506 -5.354 24.129 -4.937 24.543 L 4.385 33.793 C 5.208 34.612 6.33 35.071 7.496 35.071 L 37.664 35.071 C 39.814 35.048 41.572 36.751 41.594 38.871 C 41.617 40.991 39.893 42.728 37.743 42.749 L 16.945 42.749 C 16.354 42.749 15.82 43.102 15.589 43.647 C 15.363 44.189 15.487 44.816 15.905 45.229 L 25.232 54.487 C 26.061 55.307 27.179 55.764 28.344 55.764 L 37.751 55.764 C 49.989 55.764 59.243 42.851 52.406 30.032" fill="#ffffff" style=""/>
</svg>