<?xml version="1.0" encoding="utf-8"?>
<svg viewBox="-43.4904 -19.4255 376.9168 116.553" xmlns="http://www.w3.org/2000/svg">
  <path d="M 234.992 7.527 L 224.829 7.527 C 224.256 7.527 223.97 7.813 223.97 8.386 L 223.97 48.611 C 223.97 50.616 223.326 52.119 222.466 53.265 C 221.608 54.41 220.463 54.695 219.031 54.695 C 217.6 54.695 216.383 54.122 215.524 53.265 C 214.665 52.119 214.093 50.616 214.093 48.611 L 214.093 8.386 C 214.093 7.813 213.52 7.527 213.233 7.527 L 202.998 7.527 C 202.425 7.527 202.14 7.813 202.14 8.386 L 202.14 48.898 C 202.14 54.123 203.285 59.062 206.506 62.282 C 209.655 65.503 214.021 67.221 219.031 67.221 C 224.256 67.221 228.622 65.504 231.557 62.282 C 234.706 59.133 235.923 54.482 235.923 48.898 L 235.923 8.386 C 236.209 8.1 235.636 7.527 234.992 7.527 M 274.002 36.086 C 275.719 34.368 278.941 30.288 278.941 24.992 C 278.941 18.836 276.579 15.114 274.79 13.038 C 271.568 9.602 267.273 7.813 262.264 7.813 L 246.23 7.813 C 245.586 7.813 245.3 8.386 245.3 8.672 L 245.3 65.503 C 245.3 66.076 245.873 66.363 246.23 66.363 L 263.193 66.363 C 268.419 66.363 273.358 64.358 276.579 60.207 C 278.296 57.916 280.372 54.051 280.372 48.254 C 279.8 41.311 275.505 37.23 274.002 36.086 Z M 257.11 19.48 L 262.336 19.48 C 263.766 19.48 264.912 19.765 265.771 20.911 C 266.702 21.842 266.988 23.274 266.988 25.063 C 266.988 26.852 266.702 28.212 265.771 29.429 C 264.912 30.288 263.766 30.861 262.621 30.861 L 257.397 30.861 L 257.397 19.48 Z M 266.414 52.978 C 265.556 54.123 264.41 54.409 262.621 54.409 L 256.824 54.409 L 256.824 42.098 L 262.621 42.098 C 264.053 42.098 265.198 42.742 266.057 43.601 C 266.987 44.746 267.56 46.178 267.56 47.967 C 267.846 50.329 267.345 51.761 266.414 52.978 Z M 59.13 41.024 C 60.275 40.166 61.206 39.593 62.065 38.376 C 64.069 36.086 66.717 32.006 66.717 25.564 C 66.717 19.408 64.355 15.4 62.065 13.038 C 59.13 9.602 54.764 7.813 49.826 7.527 L 32.933 7.527 C 32.361 7.527 32.074 8.1 32.074 8.386 L 32.074 65.147 C 32.074 65.719 32.647 66.005 32.933 66.005 L 43.097 66.005 C 43.67 66.005 43.955 65.432 43.955 65.147 L 43.955 44.174 L 47.463 44.174 L 53.833 65.719 C 53.833 66.005 54.477 66.291 54.764 66.291 L 65.501 66.291 C 65.786 66.291 66.073 66.005 66.359 66.005 C 66.645 66.005 66.645 65.432 66.645 65.147 Z M 52.687 30.502 C 51.829 31.648 50.397 32.292 48.608 32.292 L 43.669 32.292 L 43.669 19.48 L 48.608 19.48 C 50.326 19.48 51.757 20.053 52.687 21.198 C 53.832 22.415 54.191 23.847 54.191 25.85 C 54.191 27.926 53.904 29.357 52.687 30.502 Z M 145.236 36.086 C 147.026 34.368 150.175 30.288 150.175 24.992 C 150.175 18.836 147.884 15.114 146.095 13.038 C 142.874 9.602 138.508 7.813 133.569 7.813 L 117.607 7.813 C 117.035 7.813 116.749 8.386 116.749 8.672 L 116.749 65.503 C 116.749 66.076 117.321 66.363 117.607 66.363 L 134.5 66.363 C 139.725 66.363 144.663 64.358 147.956 60.207 C 149.674 57.916 151.75 54.051 151.75 48.254 C 151.392 41.311 147.026 37.23 145.236 36.086 Z M 128.415 19.48 L 133.641 19.48 C 135.072 19.48 136.217 19.765 137.077 20.911 C 137.935 21.842 138.222 23.274 138.222 25.063 C 138.222 26.852 137.935 28.212 137.077 29.429 C 136.217 30.288 135.072 30.861 133.927 30.861 L 128.702 30.861 L 128.702 19.48 Z M 138.007 52.978 C 137.148 54.123 136.002 54.409 134.213 54.409 L 128.415 54.409 L 128.415 42.098 L 134.213 42.098 C 135.645 42.098 136.79 42.742 137.649 43.601 C 138.508 44.746 139.151 46.178 139.151 47.967 C 139.223 50.329 138.938 51.761 138.007 52.978 Z M 6.95 6.668 C 1.725 6.668 -2.641 8.386 -5.575 11.606 C -8.725 14.828 -9.87 19.408 -9.87 24.991 L -9.87 49.183 C -9.87 54.41 -8.725 59.348 -5.575 62.569 C -2.354 65.79 2.012 67.508 6.95 67.508 C 12.176 67.508 16.613 65.791 19.548 62.569 C 22.698 59.42 23.843 54.766 23.843 49.183 L 23.843 35.871 C 23.843 35.227 23.269 34.654 22.698 34.654 L 7.881 34.654 C 7.238 34.654 6.665 35.227 6.665 35.871 L 6.665 45.749 C 6.665 46.321 7.238 46.894 7.881 46.894 L 11.675 46.894 L 11.675 49.255 C 11.675 51.26 11.102 53.05 10.243 54.195 C 9.384 55.34 8.168 55.626 6.736 55.626 C 5.305 55.626 4.16 55.054 3.229 54.195 C 2.369 53.05 1.798 51.26 1.798 49.255 L 1.798 25.35 C 1.798 23.274 2.369 21.484 3.229 20.41 C 4.16 19.265 5.305 18.979 6.736 18.979 C 8.168 18.979 9.385 19.552 10.243 20.41 C 11.102 21.555 11.675 23.274 11.675 25.35 L 11.675 27.64 C 11.675 28.212 12.247 28.57 12.533 28.57 L 22.698 28.57 C 23.27 28.57 23.557 28.212 23.557 27.64 L 23.557 25.35 C 23.557 20.125 22.411 15.185 19.191 11.965 C 16.614 8.386 11.889 6.668 6.95 6.668 Z M 106.584 7.527 L 96.421 7.527 C 95.848 7.527 95.562 7.813 95.562 8.386 L 95.562 48.611 C 95.562 50.616 94.919 52.119 94.059 53.265 C 93.2 54.41 92.054 54.695 90.624 54.695 C 89.192 54.695 87.975 54.122 87.116 53.265 C 86.258 52.119 85.685 50.616 85.685 48.611 L 85.685 8.386 C 85.685 7.813 85.041 7.527 84.754 7.527 L 74.59 7.527 C 74.018 7.527 73.732 7.813 73.732 8.386 L 73.732 48.898 C 73.732 54.123 74.948 59.062 78.098 62.282 C 81.318 65.503 85.685 67.221 90.624 67.221 C 95.849 67.221 100.287 65.504 103.15 62.282 C 106.37 59.133 107.515 54.482 107.515 48.898 L 107.515 8.386 C 107.444 8.1 107.157 7.527 106.584 7.527 Z M 192.191 7.527 L 182.026 7.527 C 181.454 7.527 181.167 8.1 181.167 8.386 L 181.167 30.502 L 171.003 30.502 L 171.003 8.386 C 171.003 7.813 170.431 7.527 170.144 7.527 L 159.981 7.527 C 159.408 7.527 159.121 8.1 159.121 8.386 L 159.121 65.147 C 159.121 65.719 159.694 66.005 159.981 66.005 L 170.144 66.005 C 170.717 66.005 171.003 65.432 171.003 65.147 L 171.003 42.456 L 181.167 42.456 L 181.167 65.147 C 181.167 65.719 181.74 66.005 182.026 66.005 L 192.191 66.005 C 192.763 66.005 193.049 65.432 193.049 65.147 L 193.049 8.386 C 193.049 8.1 192.763 7.527 192.191 7.527 Z" fill="#ffffff" style=""/>
</svg>