<svg width="80" height="44" viewBox="0 0 80 44" fill="none" xmlns="http://www.w3.org/2000/svg">
<path fill-rule="evenodd" clip-rule="evenodd" d="M6.39701 0C2.86404 0 0 2.86404 0 6.39701V29.603C0 33.136 2.86404 36 6.397 36H32.3929L38.8036 42.4107C39.7404 43.3475 41.2593 43.3475 42.1961 42.4107L48.6068 36H73.603C77.136 36 80 33.136 80 29.603V6.39701C80 2.86404 77.136 0 73.603 0H6.39701Z" fill="#ED4956"/>
<g clip-path="url(#clip0_632_2694)">
<path fill-rule="evenodd" clip-rule="evenodd" d="M21.7272 26L21.1108 25.4945C17.4319 22.4778 15.2098 20.6589 13.9456 18.2844C13.015 16.5411 12.7651 14.8218 13.2233 13.3127C13.607 12.0509 14.4725 11.0342 15.6608 10.4516C16.2729 10.1513 16.9372 10 17.6374 10C19.3054 10 20.8753 10.8836 21.7272 12.2538C22.5798 10.8836 24.1518 10 25.8177 10C26.5171 10 27.1814 10.1513 27.7928 10.4509C28.9825 11.0342 29.8473 12.0509 30.2317 13.3127C30.6892 14.8218 30.4394 16.5411 29.5087 18.2844C28.2438 20.6596 26.0203 22.4815 22.3364 25.5004L21.7272 26Z" fill="white"/>
</g>
<path d="M39.6172 23H41.9531V11.7266H39.6094L36.6953 13.75V15.8438L39.5703 13.8906H39.6172V23ZM45.4141 23.1328C46.1172 23.1328 46.6797 22.5703 46.6797 21.8672C46.6797 21.1562 46.1172 20.6016 45.4141 20.6016C44.7031 20.6016 44.1484 21.1562 44.1484 21.8672C44.1484 22.5703 44.7031 23.1328 45.4141 23.1328ZM48.1406 23H56.3359V21.125H51.2266V21.0312L53.5859 18.875C55.5312 17.0859 56.1797 16.1953 56.1797 14.8281V14.8125C56.1797 12.8906 54.5391 11.5312 52.1562 11.5312C49.7734 11.5312 48.0078 13.0234 48.0078 15.1484V15.2109H50.1953L50.2031 15.1406C50.2344 14.125 51.0156 13.3672 52.1719 13.3672C53.1719 13.3672 53.875 14.0234 53.8828 14.9453V14.9609C53.8828 15.7422 53.5781 16.2969 52.125 17.6562L48.1406 21.3828V23ZM57.8203 23H60.1016V20.2266L60.6875 19.5781L63.0859 23H65.7188L62.3984 18.2266L65.5625 14.625H62.9766L60.1484 17.9766H60.1016V11.7266H57.8203V23Z" fill="white"/>
<defs>
<clipPath id="clip0_632_2694">
<rect width="27" height="20" fill="white" transform="translate(13 7)"/>
</clipPath>
</defs>
</svg>
