<?xml version="1.0" encoding="utf-8"?>
<svg viewBox="-43.4904 -19.4255 376.9168 116.553" xmlns="http://www.w3.org/2000/svg">
  <path d="M 63.174 12.994 L 51.197 12.994 C 47.323 12.994 47.323 12.994 46.507 17.526 C 45.692 22.055 45.704 22.215 49.26 22.215 L 56.385 22.215 L 52.335 45.366 C 51.357 50.538 49.1 54.109 42.136 56.205 C 40.359 56.688 39.877 57.325 39.877 58.142 C 40.001 59.446 40.389 60.71 41.013 61.86 C 42.137 64.613 42.791 65.104 43.753 65.104 C 44.907 64.994 46.048 64.776 47.163 64.448 C 57.026 61.215 61.075 53.61 62.693 44.547 L 67.225 18.498 C 68.026 12.991 68.026 12.991 63.174 12.991 M 103.792 12.991 C 98.941 12.991 98.941 12.991 98.284 17.041 L 94.787 38.078 C 93.812 44.227 92.194 47.783 86.206 47.783 C 80.219 47.783 78.282 44.226 79.258 38.719 L 82.654 18.658 C 83.629 12.991 83.454 12.991 78.443 12.991 C 73.429 12.991 73.429 12.991 72.775 16.881 L 69.218 37.92 C 67.122 49.896 74.565 57.325 85.086 57.325 C 96.888 57.325 102.874 51.993 104.813 39.377 L 108.381 18.498 C 109.184 12.991 108.863 12.991 103.851 12.991 M 125.951 47.461 C 129.843 47.3 131.94 45.524 131.94 43.746 C 131.94 41.474 129.186 40.671 125.469 39.535 C 118.186 37.264 111.557 34.685 111.557 26.92 C 111.557 17.695 119.164 12.67 128.704 12.67 C 132.543 12.642 136.38 12.81 140.201 13.165 C 142.78 13.486 143.436 14.29 142.619 18.337 C 141.802 22.388 140.841 22.709 138.583 22.548 C 135.829 22.388 132.261 22.053 128.064 22.053 C 123.213 22.053 121.754 23.844 121.754 25.462 C 121.754 27.56 123.693 28.698 128.225 29.994 C 136.63 32.413 142.137 35.822 142.137 43.106 C 142.137 51.687 135.829 56.699 125.632 57.018 C 120.76 57.19 115.884 56.922 111.061 56.217 C 107.814 55.722 107.653 55.722 108.468 51.031 C 109.271 46.834 109.271 46.499 112.346 46.834 C 116.85 47.403 121.396 47.616 125.937 47.477 M 178.867 12.991 L 151.52 12.991 C 147.644 12.991 147.644 12.991 146.829 17.695 C 146.013 22.404 146.187 22.388 149.583 22.388 L 158.486 22.388 L 153.459 51.41 C 152.495 57.061 152.655 57.061 157.67 57.061 C 162.359 57.061 162.52 57.061 163.177 53.027 L 168.346 22.431 L 176.928 22.431 C 180.806 22.431 180.806 22.431 181.621 17.741 C 182.435 13.048 182.421 13.037 178.867 13.037 M 227.088 22.273 C 230.966 22.273 230.966 22.273 231.781 17.58 C 232.595 12.89 232.584 12.89 229.027 12.89 L 209.447 12.89 C 202.483 12.89 202.655 12.89 201.521 19.854 L 196.511 49.136 C 195.212 56.743 195.372 56.743 202.339 56.743 L 221.437 56.743 C 225.487 56.743 225.312 56.743 226.127 52.211 C 226.944 47.681 226.93 47.521 223.374 47.521 L 206.852 47.521 L 208.151 39.1 L 221.903 39.1 C 225.634 39.1 225.634 39.1 226.274 34.728 C 226.916 30.357 226.916 30.198 221.903 30.198 L 209.766 30.198 L 211.063 22.259 L 227.088 22.273 Z M 247.763 37.759 L 254.073 23.844 C 254.566 22.709 254.566 22.709 255.368 22.709 C 256.17 22.709 256.184 22.709 256.344 24.005 L 258.282 37.759 L 247.763 37.759 Z M 264.91 18.337 C 263.949 12.831 263.949 12.831 256.168 12.831 C 248.885 12.831 249.045 12.831 246.788 17.362 L 230.441 51.511 C 228.008 56.364 228.502 56.844 234.477 56.844 C 239.181 56.844 239.181 56.844 241.12 52.472 L 243.699 46.644 L 259.564 46.644 L 260.367 52.472 C 261.021 56.844 261.182 56.844 265.874 56.844 C 271.221 56.844 271.7 56.523 270.722 51.176 L 264.91 18.34 L 264.91 18.337 Z M 303.621 12.991 L 276.115 12.991 C 272.223 12.991 272.223 12.991 271.423 17.695 C 270.619 22.404 270.767 22.388 274.162 22.388 L 283.065 22.388 L 278.052 51.41 C 277.076 57.061 277.235 57.061 282.262 57.061 C 286.953 57.061 287.113 57.061 287.756 53.027 L 292.941 22.431 L 301.508 22.431 C 305.397 22.431 305.397 22.431 306.2 17.741 C 307.001 13.048 307.175 13.037 303.621 13.037" fill-rule="nonzero" style="fill: rgb(255, 255, 255);"/>
  <path d="M 4.551 11.585 C 5.531 10.931 6.808 10.931 7.787 11.585 C 10.281 13.153 12.673 14.878 14.951 16.748 C 14.951 16.748 15.571 17.178 15.588 16.449 C 15.527 15.509 15.581 14.564 15.753 13.637 C 15.941 13.141 16.414 12.813 16.944 12.81 C 16.944 12.81 19.758 12.951 21.544 13.19 C 22.343 13.296 22.966 13.936 23.05 14.736 C 23.05 14.736 24.2 22.399 24.458 25.161 C 24.458 25.161 24.679 26.569 26.716 28.951 C 26.716 28.951 30.852 34.743 31.332 35.85 C 31.332 35.85 32.291 37.853 30.223 38.125 C 30.223 38.125 26.45 38.506 26.086 38.589 C 25.578 38.649 25.211 39.105 25.259 39.615 C 25.259 39.615 25.061 52.943 24.085 59.346 C 24.085 59.346 23.828 61.887 22.43 61.829 C 22.43 61.829 18.55 61.705 17.648 61.73 C 17.648 61.73 17.26 61.73 17.317 61.208 C 17.317 61.208 19.294 40.425 17.954 29.919 C 17.954 29.919 17.896 28.562 16.862 28.264 C 16.862 28.264 15.919 27.883 15.017 29.091 C 11.104 34.569 8.962 41.114 8.879 47.847 C 8.879 47.847 8.77 51.157 9.276 51.983 C 9.276 51.983 9.589 52.563 11.195 52.694 L 13.229 52.968 C 13.229 52.968 13.602 52.968 13.568 53.463 C 13.568 53.463 13.106 59.561 12.974 60.645 C 12.965 60.893 12.915 61.135 12.824 61.365 C 12.824 61.365 12.75 61.572 12.113 61.547 C 12.113 61.547 3.145 61.482 2.135 61.547 C 2.135 61.547 1.713 61.547 1.623 61.324 C 1.532 61.1 1.002 53.455 1.019 52.372 C 1.002 52.147 1.128 51.935 1.333 51.842 C 2.719 50.967 3.633 49.51 3.815 47.881 C 3.924 46.721 3.94 45.558 3.864 44.397 C 3.864 44.397 4.195 32.707 4.279 30.828 C 4.279 30.828 4.344 30.191 3.517 30.076 C 3.319 30.028 3.11 30.063 2.935 30.169 C 2.762 30.276 2.638 30.448 2.59 30.647 L 2.59 30.712 C 2.59 30.779 2.012 38.424 2.118 41.467 C 2.118 41.467 2.318 43.461 0.937 43.503 C 0.937 43.503 -0.404 43.702 -0.471 42.039 C -0.471 42.039 -0.372 34.543 -0.041 30.837 C -0.038 30.414 -0.356 30.056 -0.777 30.01 C -1.215 29.949 -1.624 30.243 -1.702 30.68 C -1.707 30.701 -1.707 30.723 -1.702 30.745 C -1.702 30.745 -2.282 37.919 -2.175 41.709 C -2.175 41.709 -2.01 43.546 -3.474 43.478 C -3.474 43.478 -4.699 43.619 -4.764 41.989 C -4.764 41.989 -4.433 31.722 -4.342 30.929 C -4.364 30.525 -4.676 30.194 -5.078 30.151 L -5.162 30.151 C -5.59 30.114 -5.976 30.413 -6.048 30.837 C -6.05 30.861 -6.05 30.887 -6.048 30.912 C -6.048 30.912 -6.592 43.189 -6.518 46.796 C -6.518 46.796 -6.568 50.503 -3.83 52.008 C -3.83 52.008 -3.425 52.24 -3.416 52.595 C -3.416 52.595 -3.109 59.107 -2.829 61.208 C -2.829 61.208 -2.729 61.713 -3.176 61.713 L -10.067 61.903 C -10.817 61.899 -11.434 61.311 -11.475 60.562 C -12.367 53.664 -12.793 46.711 -12.748 39.755 C -12.698 39.222 -13.053 38.736 -13.575 38.622 C -13.575 38.622 -17.1 38.3 -17.952 38.085 C -18.731 37.882 -19.202 37.087 -19.002 36.306 C -18.966 36.173 -18.914 36.046 -18.846 35.924 C -13.119 26.045 -5.093 17.695 4.552 11.585 L 4.551 11.585 Z" fill-rule="nonzero" style="fill: rgb(255, 255, 255);"/>
</svg>