<?xml version="1.0" encoding="utf-8"?>
<svg viewBox="-43.4904 -19.4255 376.9168 116.553" xmlns="http://www.w3.org/2000/svg">
  <path d="M 81.408 47.236 C 82.005 48.821 82.833 50.177 83.89 51.302 C 84.945 52.427 86.197 53.29 87.645 53.887 C 89.093 54.484 90.666 54.782 92.366 54.782 C 94.02 54.782 95.57 54.472 97.018 53.852 C 98.464 53.232 99.728 52.36 100.807 51.233 C 101.888 50.108 102.725 48.764 103.322 47.202 C 103.921 45.641 104.219 43.895 104.219 41.965 L 104.219 12.194 L 111.455 12.194 L 111.455 60.433 L 104.288 60.433 L 104.288 55.954 C 102.679 57.654 100.785 58.963 98.603 59.882 C 96.421 60.801 94.066 61.261 91.539 61.261 C 88.966 61.261 86.566 60.812 84.336 59.916 C 82.109 59.021 80.179 57.746 78.548 56.091 C 76.917 54.438 75.632 52.451 74.689 50.13 C 73.747 47.811 73.277 45.226 73.277 42.378 L 73.277 12.194 L 80.512 12.194 L 80.512 41.965 C 80.512 43.895 80.811 45.651 81.408 47.236 Z M 123.927 12.194 L 123.927 29.767 C 125.536 28.159 127.396 26.883 129.509 25.943 C 131.623 25.001 133.921 24.529 136.4 24.529 C 138.973 24.529 141.385 25.012 143.637 25.977 C 145.888 26.941 147.84 28.25 149.495 29.904 C 151.149 31.559 152.458 33.511 153.422 35.762 C 154.387 38.014 154.87 40.402 154.87 42.929 C 154.87 45.456 154.387 47.833 153.422 50.062 C 152.458 52.29 151.149 54.231 149.495 55.885 C 147.84 57.539 145.888 58.848 143.637 59.813 C 141.385 60.778 138.973 61.261 136.4 61.261 C 133.921 61.261 131.612 60.789 129.475 59.848 C 127.339 58.906 125.466 57.631 123.859 56.023 L 123.859 60.433 L 116.968 60.433 L 116.968 12.194 Z M 124.72 47.684 C 125.34 49.154 126.202 50.441 127.305 51.544 C 128.406 52.646 129.693 53.52 131.163 54.163 C 132.633 54.806 134.218 55.127 135.918 55.127 C 137.573 55.127 139.134 54.806 140.604 54.163 C 142.074 53.52 143.349 52.647 144.43 51.544 C 145.509 50.441 146.37 49.154 147.013 47.684 C 147.656 46.214 147.979 44.629 147.979 42.929 C 147.979 41.229 147.656 39.633 147.013 38.14 C 146.37 36.647 145.509 35.349 144.43 34.247 C 143.349 33.144 142.075 32.283 140.604 31.662 C 139.134 31.041 137.573 30.732 135.918 30.732 C 134.264 30.732 132.703 31.041 131.233 31.662 C 129.763 32.283 128.476 33.144 127.373 34.247 C 126.271 35.349 125.397 36.647 124.754 38.14 C 124.111 39.633 123.79 41.229 123.79 42.929 C 123.79 44.629 124.1 46.214 124.72 47.684 Z M 158.797 35.832 C 159.715 33.626 160.979 31.686 162.587 30.008 C 164.194 28.331 166.102 27.01 168.306 26.046 C 170.512 25.08 172.901 24.598 175.474 24.598 C 178.001 24.598 180.343 25.058 182.503 25.977 C 184.662 26.895 186.523 28.171 188.086 29.801 C 189.647 31.432 190.865 33.362 191.738 35.59 C 192.61 37.819 193.047 40.242 193.047 42.862 L 193.047 45.135 L 164.448 45.135 C 164.678 46.559 165.137 47.88 165.827 49.097 C 166.515 50.315 167.376 51.372 168.411 52.267 C 169.445 53.163 170.615 53.863 171.925 54.369 C 173.234 54.875 174.624 55.127 176.094 55.127 C 180.276 55.127 183.652 53.405 186.225 49.959 L 191.256 53.681 C 189.51 56.023 187.35 57.861 184.777 59.193 C 182.204 60.525 179.31 61.191 176.094 61.191 C 173.476 61.191 171.03 60.733 168.755 59.813 C 166.481 58.894 164.505 57.608 162.829 55.954 C 161.151 54.3 159.832 52.36 158.866 50.13 C 157.902 47.902 157.42 45.479 157.42 42.86 C 157.418 40.38 157.878 38.037 158.797 35.832 Z M 168.479 33.11 C 166.527 34.741 165.229 36.911 164.585 39.622 L 186.018 39.622 C 185.421 36.911 184.146 34.741 182.194 33.11 C 180.24 31.478 177.955 30.662 175.336 30.662 C 172.718 30.662 170.433 31.478 168.479 33.11 Z M 206.072 33.902 C 204.602 35.51 203.866 37.692 203.866 40.448 L 203.866 60.433 L 196.905 60.433 L 196.905 25.288 L 203.797 25.288 L 203.797 29.629 C 204.67 28.205 205.806 27.08 207.209 26.252 C 208.609 25.425 210.275 25.012 212.205 25.012 L 214.616 25.012 L 214.616 31.489 L 211.722 31.489 C 209.425 31.489 207.542 32.293 206.072 33.902 Z" style="fill: rgb(255, 255, 255);"/>
</svg>